<svg width="21" height="22" viewBox="0 0 21 22" fill="none" xmlns="http://www.w3.org/2000/svg">
<path d="M18.3744 8.27844C18.3744 8.27844 17.7907 15.5186 17.452 18.5683C17.2908 20.025 16.391 20.8785 14.9172 20.9054C12.1125 20.9559 9.30462 20.9591 6.50102 20.9C5.0831 20.871 4.19837 20.0067 4.04035 18.5759C3.69957 15.4992 3.11907 8.27844 3.11907 8.27844M19.8614 4.80783H1.63159M16.3488 4.8078C15.5049 4.8078 14.7782 4.21118 14.6126 3.3845L14.3514 2.0773C14.1902 1.47423 13.6441 1.05713 13.0216 1.05713H8.47117C7.84875 1.05713 7.30265 1.47423 7.1414 2.0773L6.88017 3.3845C6.71462 4.21118 5.98792 4.8078 5.14405 4.8078" stroke="white" stroke-width="1.3" stroke-linecap="round" stroke-linejoin="round"/>
</svg>


